<svg xmlns="http://www.w3.org/2000/svg" xmlns:xlink="http://www.w3.org/1999/xlink" version="1.1" id="Your_Icon" x="0px" y="0px" width="100px" height="100px" viewBox="0 0 100 100" enable-background="new 0 0 100 100" xml:space="preserve">
<path fill="#000000" d="M44.436,31.939c2.828,0,4.961-0.846,6.332-2.512c2.201-2.673,1.504-6.414,1.473-6.572  c-0.105-0.539-0.576-0.927-1.125-0.927c-2.879,0-5.033,0.855-6.404,2.541c-2.176,2.677-1.43,6.399-1.398,6.558  C43.424,31.559,43.893,31.939,44.436,31.939z M46.49,25.915c0.76-0.935,1.963-1.486,3.584-1.646  c0.023,0.996-0.125,2.555-1.082,3.711c-0.762,0.917-1.947,1.459-3.529,1.617C45.428,28.611,45.557,27.064,46.49,25.915z"/>
<path fill="#000000" d="M38.85,36.279c-0.211-0.035-5.242-0.83-9.105,2.38c-2.688,2.23-4.098,5.781-4.188,10.551  c-0.012,0.633,0.49,1.156,1.123,1.168c0.008,0,0.016,0,0.023,0c0.623,0,1.133-0.5,1.145-1.125c0.078-4.062,1.203-7.029,3.344-8.818  c3.045-2.545,7.242-1.9,7.283-1.893c0.623,0.107,1.213-0.32,1.316-0.943C39.895,36.974,39.475,36.383,38.85,36.279z"/>
<path fill="#000000" d="M41.121,37.542c-0.215,0.213-0.33,0.512-0.33,0.809c0,0.307,0.115,0.604,0.33,0.811  c0.213,0.213,0.512,0.336,0.809,0.336c0.307,0,0.596-0.123,0.811-0.336c0.213-0.215,0.336-0.504,0.336-0.811  c0-0.297-0.123-0.596-0.336-0.809C42.312,37.112,41.549,37.12,41.121,37.542z"/>
<path fill="#000000" d="M78.416,71.462l-9.832-9.102c-0.021-0.02-0.049-0.025-0.07-0.041l-0.365-0.338  c-0.309-0.287-0.791-0.27-1.078,0.041c-0.514,0.553-1.207,0.857-1.953,0.857c-0.068,0-0.133-0.014-0.199-0.02  c0.469-1.059,0.852-2.135,1.133-3.205c2.021-7.725,1.852-20.914-6.91-25.589c-2.158-1.152-5.324-1.898-8.068-1.898  c-2.447,0-4.768,0.834-6.818,1.568l-0.029,0.012l-0.029-0.012c-2.051-0.734-4.371-1.568-6.818-1.568  c-2.744,0-5.91,0.746-8.068,1.898c-8.763,4.677-8.933,17.864-6.91,25.589c1.992,7.598,8.967,15.455,17.191,15.455  c0.896,0,1.803-0.094,2.691-0.277c0.641-0.131,1.279-0.303,1.943-0.52c0.664,0.217,1.303,0.389,1.943,0.52  c0.889,0.184,1.795,0.277,2.691,0.277l0,0c1.898,0,3.727-0.422,5.443-1.158c3.176,2.652,7.148,4.119,11.307,4.119  c4.908,0,9.469-1.963,12.842-5.523c0.141-0.148,0.215-0.348,0.209-0.551C78.652,71.794,78.564,71.601,78.416,71.462z M65.07,64.999  c1.08,0,2.129-0.369,2.977-1.029l6.727,6.225c-2.496,2.359-5.734,3.648-9.201,3.648H65.57c-2.648,0-5.197-0.785-7.375-2.223  c-0.607-0.402-1.193-0.846-1.734-1.348c-0.035-0.033-0.064-0.068-0.1-0.102c-5.082-4.807-5.58-12.768-1.234-18.162l5.902,5.465  c-0.525,0.791-0.809,1.717-0.809,2.674c-0.002,1.297,0.502,2.516,1.418,3.432c0.082,0.08,0.166,0.152,0.252,0.227  c0.588,0.514,1.281,0.871,2.027,1.051C64.291,64.946,64.676,64.999,65.07,64.999z M48.859,72.819c-0.742,0-1.49-0.078-2.229-0.23  c-0.662-0.137-1.326-0.322-2.029-0.568c-0.121-0.041-0.25-0.062-0.377-0.062c-0.129,0-0.256,0.021-0.377,0.062  c-0.703,0.246-1.367,0.432-2.031,0.568c-0.736,0.152-1.486,0.23-2.227,0.23c-7.117,0-13.203-6.99-14.973-13.744  c-1.84-7.021-1.82-18.936,5.77-22.987c1.852-0.988,4.596-1.627,6.99-1.627c2.049,0,4.08,0.729,6.043,1.434l0.42,0.15  c0.25,0.088,0.52,0.088,0.77,0l0.42-0.15c1.963-0.705,3.994-1.434,6.043-1.434c2.395,0,5.139,0.639,6.99,1.627  c7.59,4.052,7.609,15.966,5.77,22.987c-0.23,0.883-0.539,1.768-0.91,2.643c-0.293-0.428-0.467-0.943-0.467-1.5  c0-0.672,0.252-1.312,0.711-1.807c0.137-0.148,0.211-0.346,0.201-0.549c-0.006-0.203-0.094-0.395-0.242-0.531l-0.48-0.443  c-0.02-0.023-0.029-0.051-0.051-0.072L53.6,48.491c-0.15-0.141-0.35-0.213-0.555-0.205c-0.203,0.01-0.396,0.102-0.533,0.252  c-6.1,6.74-6.002,17.027-0.037,23.668C51.312,72.595,50.104,72.819,48.859,72.819z M65.609,76.544c-3.57,0-7.002-1.174-9.811-3.326  c-0.396-0.305-0.781-0.629-1.152-0.973c-0.227-0.209-0.428-0.434-0.641-0.652c-5.65-5.861-6.043-15.143-0.865-21.443l0.887,0.82  c-4.846,5.918-4.41,14.654,1.035,20.057c0.123,0.121,0.232,0.25,0.359,0.365c0.461,0.428,0.953,0.811,1.459,1.174  c2.525,1.811,5.545,2.805,8.689,2.805c0,0,0,0,0.002,0c3.9,0,7.529-1.48,10.322-4.16l0.902,0.836  C73.777,74.952,69.834,76.544,65.609,76.544z"/>
</svg>