<?xml version="1.0" encoding="utf-8"?>
<!-- Generator: Adobe Illustrator 15.1.0, SVG Export Plug-In . SVG Version: 6.00 Build 0)  -->
<!DOCTYPE svg PUBLIC "-//W3C//DTD SVG 1.1//EN" "http://www.w3.org/Graphics/SVG/1.1/DTD/svg11.dtd">
<svg version="1.1" id="Layer_1" xmlns="http://www.w3.org/2000/svg" xmlns:xlink="http://www.w3.org/1999/xlink" x="0px" y="0px"
	 width="99.999px" height="81.127px" viewBox="0 0 99.999 81.127" enable-background="new 0 0 99.999 81.127" xml:space="preserve">
<ellipse transform="matrix(-0.6561 0.7547 -0.7547 -0.6561 128.2793 -35.235)" fill="#010101" cx="72.168" cy="11.611" rx="2.157" ry="3.608"/>
<ellipse transform="matrix(0.5288 0.8487 -0.8487 0.5288 42.0304 -45.348)" fill="#010101" cx="61.858" cy="15.181" rx="3.608" ry="2.157"/>
<ellipse transform="matrix(0.6564 0.7544 -0.7544 0.6564 18.2025 -16.747)" fill="#010101" cx="27.486" cy="11.609" rx="2.157" ry="3.608"/>
<ellipse transform="matrix(-0.1655 0.9862 -0.9862 -0.1655 60.0016 -19.5853)" fill="#010101" cx="38.287" cy="15.592" rx="3.578" ry="2.404"/>
<ellipse fill="#010101" cx="50.104" cy="10.909" rx="2.405" ry="3.578"/>
<polygon fill="#010101" points="30.164,55.561 24.361,59.236 35.894,59.236 "/>
<path fill="#010101" d="M19.907,59.236l-9.045-5.381L5.4,57.281c1.306,1.22,2.987,1.955,4.821,1.955H19.907z"/>
<polygon fill="#010101" points="76.327,59.236 88.525,59.236 80.855,54.516 "/>
<polygon fill="#010101" points="64.168,55.33 59.55,59.236 70.257,59.236 "/>
<path fill="#010101" d="M45.293,54.245l-0.285-0.183c0.083,0.071,0.168,0.14,0.254,0.208L45.293,54.245z"/>
<path fill="#010101" d="M95.847,29.2c-0.099-0.046-0.201-0.059-0.304-0.073c1.681-1.625,2.663-3.506,2.663-5.687
	C98.206,10.516,76.502,0,49.826,0C23.149,0,1.445,10.516,1.445,23.44c0,2.278,1.076,4.229,2.897,5.904
	c-2.616,1.646-4.216,4.292-4.336,7.285c-0.113,2.815,1.134,5.397,3.175,6.575c0.679,0.393,1.414,0.609,2.182,0.67
	c0.233,0.018,0.471,0.018,0.712,0.005c-1.072,0.792-1.955,1.878-2.547,3.161l7.302,4.343l2.868-1.799
	c0.562,0.084,1.145,0.11,1.739,0.076c1.097-0.062,2.23-0.321,3.35-0.798c0,0.008,0.002,0.014,0.003,0.021l-5.921,3.715l9.296,5.53
	l5.4-3.419c0.811-0.182,1.604-0.47,2.347-0.873c0.365-0.198,0.713-0.429,1.05-0.676l-0.009,0.015l8.456,5.812l4.21-3.392
	c0.203,0.183,0.408,0.363,0.628,0.527c0.377,0.277,0.78,0.512,1.194,0.723l-2.967,2.392h10.6l-2.717-1.745
	c0.413-0.113,0.81-0.27,1.185-0.472c0.339-0.183,0.657-0.402,0.959-0.656l4.073,2.613l2.49-2.105
	c0.297,0.026,0.593,0.039,0.891,0.032c0.484-0.015,0.966-0.073,1.44-0.191c1.205-0.299,2.731-1.085,3.726-3.012
	c2.12,1.206,4.281,2.519,6.51,3.954l0.633,0.408l0.588-0.472c1.699-1.355,2.332-3.368,2.937-5.321
	c1.313,0.616,2.496,0.903,3.558,0.903c0.136,0,0.266-0.011,0.396-0.02c2.975-0.191,5.036-2.507,6.755-5.006
	c0.211,0.065,0.426,0.125,0.644,0.179c0.166,0.043,0.338,0.079,0.508,0.115c1.104,0.231,2.271,0.324,3.413,0.277l5.268,3.209
	c0.042-0.354,0.069-0.709,0.069-1.073c0-1.219-0.24-2.373-0.66-3.418c0.144-0.088,0.297-0.168,0.428-0.266
	c0.337-0.251,0.637-0.532,0.895-0.848c0.22-0.268,0.424-0.579,0.593-0.935c0.596-1.248,0.74-3.059-0.615-5.559
	c1.914-1.308,3.003-3.171,2.959-5.14C99.947,32.402,98.434,30.4,95.847,29.2z M49.826,3.497c26.45,0,44.883,10.51,44.883,19.944
	c0,8.279-28.772,12.434-44.882,12.434c-5.163,0-16.474-0.729-26.479-2.737C11.65,30.789,4.942,27.253,4.942,23.44
	C4.942,14.006,23.376,3.497,49.826,3.497z M62.84,53.41c-0.195,0.252-0.422,0.458-0.663,0.642c-0.374,0.285-0.796,0.499-1.282,0.618
	c-1.994,0.497-4.778-0.457-6.613-2.263c-0.25-0.243-0.602-0.348-0.942-0.28c-0.342,0.068-0.627,0.303-0.761,0.624
	c-0.313,0.743-0.688,1.299-1.093,1.714c-0.286,0.293-0.588,0.502-0.891,0.67c-0.424,0.235-0.853,0.374-1.258,0.432
	c-0.415,0.058-0.799,0.045-1.126,0.006c-0.058-0.008-0.115-0.015-0.168-0.023c-0.709-0.113-1.439-0.395-2.119-0.81
	c-0.227-0.141-0.447-0.298-0.662-0.468c-0.086-0.066-0.17-0.136-0.253-0.209c-0.763-0.664-1.403-1.515-1.785-2.512
	c-0.193-0.503-0.321-1.04-0.366-1.609c-0.041-0.503-0.432-0.906-0.933-0.96c-0.505-0.054-0.971,0.254-1.117,0.737
	c-0.021,0.068-0.056,0.127-0.08,0.193c-0.139,0.383-0.341,0.724-0.57,1.038c-0.973,1.337-2.631,2.057-4.041,2.057
	c-0.016,0-0.032,0-0.049,0c-0.132-0.002-0.281-0.011-0.437-0.029c-0.303-0.036-0.64-0.115-0.976-0.259
	c-0.402-0.175-0.802-0.446-1.137-0.872c-0.147-0.188-0.28-0.408-0.396-0.659c-0.089-0.19-0.169-0.396-0.234-0.63
	c-0.107-0.382-0.419-0.672-0.809-0.747c-0.391-0.079-0.788,0.073-1.031,0.386c-0.339,0.439-0.718,0.812-1.118,1.136
	c-0.391,0.314-0.804,0.567-1.229,0.78c-0.282,0.14-0.568,0.264-0.858,0.36c-0.657,0.218-1.326,0.323-1.968,0.336
	c-0.744,0.016-1.456-0.098-2.074-0.33c-1.277-0.479-2.165-1.419-2.621-2.683c-0.129-0.358-0.229-0.739-0.288-1.146
	c-0.062-0.448-0.094-0.913-0.065-1.414c0.021-0.389-0.173-0.758-0.508-0.957c-0.334-0.203-0.752-0.2-1.085,0.001
	c-0.149,0.09-0.301,0.162-0.452,0.244c-0.54,0.291-1.087,0.519-1.63,0.691c-1.782,0.564-3.523,0.487-4.837-0.294
	c-1.342-0.799-2.11-2.275-2.21-4.21c-0.001-0.015,0-0.03,0-0.045c-0.014-0.273-0.015-0.554-0.001-0.846
	c0.019-0.391-0.182-0.759-0.52-0.957c-0.087-0.05-0.181-0.087-0.276-0.11c-0.273-0.067-0.568-0.024-0.813,0.13
	c-1.602,1.013-3.076,1.186-4.262,0.502c-1.375-0.794-2.208-2.628-2.127-4.673c0.042-1.025,0.4-3.295,2.564-5.039
	c0.151,0.669,0.442,1.317,0.89,1.936c3.904,5.395,19.118,7.687,28.208,9.056c2.225,0.336,4.144,0.624,5.265,0.87
	c8.511,1.863,16.125,4.706,24.259,9.142C63.156,52.943,63.01,53.192,62.84,53.41z M72.069,55.443
	c-2.301-1.466-4.534-2.801-6.729-4.027c-0.109-0.103-0.237-0.188-0.391-0.235c-0.016-0.005-0.03-0.001-0.046-0.005
	c-8.54-4.726-16.496-7.736-25.426-9.69c-1.189-0.26-3.048-0.54-5.401-0.895c-8.189-1.232-23.433-3.53-26.82-8.211
	c-0.298-0.413-0.474-0.83-0.555-1.257c12.451,7.815,42.739,8.249,43.124,8.249c0.381,0,30.164-0.427,42.803-8.054
	c-0.814,2.786-4.369,5.102-7.576,7.188c-1.582,1.027-3.076,1.999-4.245,3.008c-2.531,2.184-4.518,4.529-5.743,6.782
	c-0.563,1.036-0.919,2.188-1.264,3.305C73.347,53.065,72.915,54.463,72.069,55.443z M95.12,38.536
	c-0.263,0.136-0.455,0.377-0.529,0.663c-0.075,0.287-0.027,0.591,0.134,0.84c0.561,0.864,1.099,1.925,1.228,2.937
	c0.091,0.729-0.029,1.432-0.511,2.021c-0.084,0.103-0.181,0.2-0.282,0.293c-0.126,0.116-0.273,0.218-0.424,0.318
	c-1.355,0.909-3.658,1.254-5.909,0.925c-0.088-0.013-0.172-0.039-0.26-0.053c-0.719-0.122-1.431-0.3-2.098-0.563
	c-0.462-0.183-0.987-0.02-1.263,0.396c-0.098,0.147-0.192,0.284-0.289,0.427c-1.553,2.286-2.933,3.767-4.586,4.193
	c-0.965,0.25-2.023,0.145-3.269-0.377c-0.194-0.082-0.396-0.18-0.6-0.281c0.135-0.341,0.277-0.672,0.444-0.979
	c1.106-2.033,2.929-4.177,5.271-6.196c1.061-0.916,2.497-1.85,4.018-2.838c3.848-2.501,8.126-5.293,8.651-9.243
	c0.041,0.026,0.069,0.063,0.114,0.084c1.834,0.851,2.906,2.176,2.939,3.633C97.934,36.193,96.894,37.614,95.12,38.536z"/>
<path fill="#010101" d="M4.32,60.727c1.03,0.811,2.169,0.961,3.173,1.095c0.79,0.104,1.472,0.193,2.015,0.573
	c0.389,0.271,0.596,0.762,0.835,1.331c0.379,0.904,0.954,2.27,2.706,2.397c1.204,0.09,1.939-0.739,2.532-1.402
	c0.507-0.568,0.838-0.916,1.267-0.926c0.957,0,1.443,0.822,2.308,2.614c0.846,1.751,1.899,3.931,4.365,3.946
	c1.521,0.004,2.525-1.452,3.495-2.865c0.672-0.979,1.508-2.199,2.168-2.242c0.325-0.021,0.788,0.278,1.292,0.84
	c0.238,0.271,0.592,1.56,0.85,2.501c0.645,2.347,1.374,5.008,3.074,5.818c0.266,0.129,0.626,0.242,1.061,0.242
	c0.337,0,0.72-0.069,1.141-0.253c1.677-0.73,1.842-2.688,2.001-4.582c0.224-2.664,0.51-3.946,2.169-4.179
	c0.491-0.072,1.516,0.48,2.263,0.881c0.597,0.321,1.162,0.624,1.696,0.795c2.203,0.709,3.077,0.286,4.322-0.461
	c0.27-0.161,0.574-0.344,0.947-0.534c1.726-0.885,2.75-0.284,4.411,0.855c1.315,0.897,2.805,1.919,4.828,1.517
	c1.17-0.234,1.913-1.17,2.57-1.995c0.392-0.491,0.797-0.999,1.183-1.201c1.074-0.56,2.405-0.437,4.19,0.385
	c0.439,0.2,0.796,0.707,1.173,1.241c0.646,0.913,1.447,2.05,3.037,2.05c1.197,0,2.137-0.587,2.965-1.104
	c0.968-0.605,1.55-0.935,2.271-0.654c0.691,0.269,1.454,1.118,2.192,1.94c1.103,1.228,2.244,2.498,3.694,2.347
	c0.901-0.095,1.667-0.709,2.34-1.879c0.378-0.657,0.545-1.336,0.691-1.935c0.236-0.961,0.402-1.525,1.057-1.988
	c0.57-0.403,1.314-0.53,2.103-0.66c0.834-0.14,1.777-0.299,2.623-0.822c0.194-0.119,0.425-0.256,0.678-0.407
	c2.316-1.382,5.817-3.468,5.719-6.014c-0.044-1.154-0.807-2.139-2.25-2.936c-0.301,0.63-0.673,1.206-1.101,1.717
	c0.532,0.277,1.296,0.767,1.315,1.294c0.051,1.339-3.42,3.407-4.727,4.186c-0.265,0.159-0.505,0.302-0.708,0.428
	c-0.505,0.313-1.175,0.424-1.886,0.544c-0.933,0.157-1.992,0.334-2.942,1.006c-1.31,0.926-1.613,2.17-1.859,3.168
	c-0.126,0.513-0.243,0.998-0.478,1.404c-0.468,0.812-0.756,0.864-0.787,0.868c-0.408,0.064-1.348-0.995-1.966-1.682
	c-0.897-1.001-1.825-2.033-2.971-2.479c-1.708-0.662-3.028,0.163-4.089,0.826c-0.682,0.427-1.272,0.795-1.886,0.795
	c-0.486,0-0.776-0.344-1.372-1.188c-0.491-0.697-1.049-1.488-1.985-1.918c-2.37-1.091-4.328-1.201-5.984-0.339
	c-0.77,0.4-1.312,1.081-1.838,1.741c-0.459,0.578-0.935,1.178-1.371,1.264c-1.183,0.234-2.154-0.429-3.279-1.2
	c-1.604-1.099-3.604-2.466-6.492-0.987c-0.421,0.216-0.763,0.421-1.066,0.602c-0.958,0.575-1.216,0.729-2.649,0.269
	c-0.358-0.115-0.843-0.376-1.356-0.651c-1.104-0.593-2.355-1.267-3.509-1.102c-3.452,0.483-3.722,3.687-3.918,6.025
	c-0.104,1.236-0.223,2.639-0.785,2.884c-0.31,0.136-0.444,0.071-0.507,0.041c-0.859-0.409-1.539-2.884-1.988-4.521
	c-0.458-1.671-0.767-2.728-1.296-3.317c-0.969-1.086-1.929-1.579-2.941-1.517c-1.648,0.105-2.748,1.708-3.719,3.121
	c-0.541,0.79-1.359,1.979-1.801,1.979c-0.001,0-0.001,0-0.002,0c-1.115-0.005-1.704-1.06-2.542-2.794
	c-0.821-1.699-1.846-3.812-4.185-3.764c-1.338,0.029-2.152,0.939-2.746,1.605c-0.31,0.347-0.649,0.741-0.864,0.727
	c-0.434-0.031-0.57-0.193-0.974-1.155c-0.301-0.714-0.675-1.604-1.547-2.212c-0.951-0.662-1.994-0.801-2.915-0.924
	c-0.851-0.112-1.587-0.209-2.224-0.711c-0.73-0.574-1.729-1.359-1.777-2.306c-0.02-0.358,0.093-0.753,0.328-1.173L4.05,55.635l0,0
	l0.038-0.023l4.734-2.971l-5.957-3.542c-0.109,0.566-0.17,1.153-0.17,1.756c0,0.932,0.141,1.823,0.394,2.659l0,0.001
	c-0.969,1.149-1.423,2.258-1.368,3.372C1.817,58.758,3.356,59.968,4.32,60.727z"/>
<path fill="#010101" d="M94.373,56.772c0.429-0.511,0.802-1.086,1.101-1.715c0.126-0.263,0.241-0.53,0.341-0.81l-8.425-5.399
	l-3.929,4.308l8.494,5.498C92.874,58.232,93.694,57.583,94.373,56.772z"/>
<path fill="#010101" d="M97.151,61.438l-2.705,2.196l0.127,0.279c0.127,0.276,0.192,0.542,0.192,0.792
	c0,7.399-18.9,12.769-44.94,12.769s-44.94-5.369-44.94-12.769c0-0.52,0.249-1.045,0.759-1.604l0.275-0.3l-2.755-2.347l-0.221,0.24
	c-1.268,1.388-1.442,2.748-1.442,4.01c0,12.108,24.962,16.422,48.325,16.422c23.361,0,48.324-4.314,48.324-16.422
	c0-1.014-0.268-1.994-0.797-2.916L97.151,61.438z"/>
</svg>
