<svg xmlns="http://www.w3.org/2000/svg" xmlns:xlink="http://www.w3.org/1999/xlink" version="1.1" id="Layer_1" x="0px" y="0px" width="100px" height="100px" viewBox="0 0 100 100" enable-background="new 0 0 100 100" xml:space="preserve">
<path fill="#000000" d="M48.541,42.908c1.111,0,2.011-0.9,2.011-2.011c0-1.111-0.901-3.585-2.011-3.585  c-1.111,0-2.011,2.474-2.011,3.585C46.53,42.008,47.43,42.908,48.541,42.908z M58.312,42.908c1.111,0,2.011-0.9,2.011-2.011  c0-1.111-0.901-3.585-2.011-3.585c-1.111,0-2.011,2.474-2.011,3.585C56.3,42.008,57.201,42.908,58.312,42.908z M29.202,42.908  c1.111,0,2.011-0.9,2.011-2.011c0-1.111-0.9-3.585-2.011-3.585c-1.111,0-2.011,2.474-2.011,3.585  C27.191,42.008,28.091,42.908,29.202,42.908z M38.973,42.908c1.111,0,2.011-0.9,2.011-2.011c0-1.111-0.9-3.585-2.011-3.585  c-1.111,0-2.011,2.474-2.011,3.585C36.961,42.008,37.862,42.908,38.973,42.908z M68.082,42.908c1.111,0,2.011-0.9,2.011-2.011  c0-1.111-0.9-3.585-2.011-3.585c-1.111,0-2.011,2.474-2.011,3.585C66.071,42.008,66.971,42.908,68.082,42.908z M43.597,51.996  c1.111,0,2.011-0.9,2.011-2.011c0-1.111-0.9-3.585-2.011-3.585c-1.111,0-2.011,2.474-2.011,3.585  C41.586,51.096,42.486,51.996,43.597,51.996z M53.368,51.996c1.111,0,2.011-0.9,2.011-2.011c0-1.111-0.901-3.585-2.011-3.585  c-1.111,0-2.011,2.474-2.011,3.585C51.357,51.096,52.257,51.996,53.368,51.996z M34.029,51.996c1.111,0,2.011-0.9,2.011-2.011  c0-1.111-0.901-3.585-2.011-3.585c-1.111,0-2.011,2.474-2.011,3.585C32.017,51.096,32.918,51.996,34.029,51.996z M63.138,51.996  c1.111,0,2.011-0.9,2.011-2.011c0-1.111-0.9-3.585-2.011-3.585c-1.111,0-2.011,2.474-2.011,3.585  C61.127,51.096,62.028,51.996,63.138,51.996z M49.011,55.415C47.9,55.415,47,57.889,47,59s0.9,2.011,2.011,2.011  c1.111,0,2.011-0.9,2.011-2.011S50.122,55.415,49.011,55.415z M58.782,55.415c-1.111,0-2.011,2.474-2.011,3.585  s0.901,2.011,2.011,2.011c1.111,0,2.011-0.9,2.011-2.011S59.893,55.415,58.782,55.415z M29.672,55.415  c-1.111,0-2.011,2.474-2.011,3.585s0.9,2.011,2.011,2.011c1.111,0,2.011-0.9,2.011-2.011S30.783,55.415,29.672,55.415z   M39.443,55.415c-1.111,0-2.011,2.474-2.011,3.585s0.901,2.011,2.011,2.011c1.111,0,2.011-0.9,2.011-2.011  S40.554,55.415,39.443,55.415z M68.552,55.415c-1.111,0-2.011,2.474-2.011,3.585s0.9,2.011,2.011,2.011s2.011-0.9,2.011-2.011  S69.663,55.415,68.552,55.415z M44.085,64.431c-1.111,0-2.011,2.474-2.011,3.585c0,1.111,0.9,2.011,2.011,2.011  c1.111,0,2.011-0.9,2.011-2.011C46.096,66.904,45.196,64.431,44.085,64.431z M53.855,64.431c-1.111,0-2.011,2.474-2.011,3.585  c0,1.111,0.9,2.011,2.011,2.011c1.111,0,2.011-0.9,2.011-2.011C55.867,66.904,54.966,64.431,53.855,64.431z M34.516,64.431  c-1.111,0-2.011,2.474-2.011,3.585c0,1.111,0.9,2.011,2.011,2.011s2.011-0.9,2.011-2.011C36.528,66.904,35.627,64.431,34.516,64.431  z M63.626,64.431c-1.111,0-2.011,2.474-2.011,3.585c0,1.111,0.9,2.011,2.011,2.011c1.111,0,2.011-0.9,2.011-2.011  C65.637,66.904,64.737,64.431,63.626,64.431z M48.642,72.547c-1.111,0-2.011,2.474-2.011,3.585c0,1.111,0.901,2.011,2.011,2.011  c1.111,0,2.011-0.901,2.011-2.011C50.653,75.021,49.753,72.547,48.642,72.547z M60.112,26.952c3.193-1.674,6.008-4.402,6.683-8.902  c0.082-0.543-0.281-1.052-0.82-1.154c-0.046-0.008-1.155-0.211-2.805-0.211c-3.006,0-9.432,0.748-13.13,6.648  c-0.273-3.436-1.239-7.772-4.143-10.675c-0.398-0.398-1.043-0.398-1.441,0c-0.398,0.398-0.398,1.043,0,1.441  c2.459,2.459,3.294,6.298,3.54,9.389c-3.681-6.036-10.186-6.804-13.217-6.804c-1.65,0-2.759,0.203-2.805,0.211  c-0.54,0.101-0.902,0.611-0.82,1.154c0.675,4.5,3.489,7.228,6.682,8.902c-6.868,0.689-17.542,4.292-17.542,20.054  c0,28.909,19.229,38.262,28.54,38.262c9.028,0,28.819-9.635,28.819-38.262C77.653,31.244,66.98,27.641,60.112,26.952z M63.17,18.723  c0.542,0,1.017,0.024,1.402,0.055c-1.36,5.263-6.593,7.363-10.622,8.204c-0.972,0.106-1.877,0.249-2.674,0.42  c-0.338,0.036-0.658,0.066-0.933,0.086C52.857,19.899,59.377,18.723,63.17,18.723z M33.377,18.778  c0.384-0.031,0.86-0.055,1.402-0.055c3.793,0,10.312,1.176,12.825,8.766c-0.274-0.02-0.594-0.05-0.933-0.087  c-0.797-0.171-1.701-0.314-2.672-0.42C39.97,26.141,34.735,24.041,33.377,18.778z M48.834,83.228  c-19.829,0-26.502-24.875-26.502-36.223c0-15.806,11.533-18.166,18.407-18.166c1.127,0,2.183,0.073,3.152,0.183  c0.856,0.171,1.655,0.295,2.35,0.377c1.041,0.224,1.839,0.479,2.257,0.698c0.299,0.155,0.649,0.155,0.948,0  c0.395-0.207,1.171-0.464,2.213-0.693c0.727-0.084,1.565-0.213,2.469-0.395c0.934-0.102,1.96-0.169,3.078-0.169  c6.874,0,18.407,2.36,18.407,18.166C75.614,74.107,57.223,83.228,48.834,83.228z"/>
</svg>